<?xml version="1.0" encoding="utf-8"?>
<!-- Generator: Adobe Illustrator 18.1.1, SVG Export Plug-In . SVG Version: 6.00 Build 0)  -->
<svg version="1.1" xmlns="http://www.w3.org/2000/svg" xmlns:xlink="http://www.w3.org/1999/xlink" x="0px" y="0px"
	 viewBox="0 0 850 300" enable-background="new 0 0 850 300" xml:space="preserve">
<g id="Layer_2" display="none">
	<rect x="-12" y="-20.5" display="inline" fill="#135CAA" width="893" height="341"/>
</g>
<g id="Layer_1">
	<path fill="#FFFFFF" d="M210.2,77.9h22.6v-7.3h-14.7V41.9h-7.9V77.9z"/>
	<path fill="#FFFFFF" d="M291.9,41.9H284v21.8c0,1.1-0.2,2.2-0.5,3.1c-0.4,0.9-0.9,1.8-1.5,2.5c-0.6,0.7-1.4,1.2-2.3,1.6
		c-0.9,0.4-1.8,0.6-2.9,0.6c-1.1,0-2-0.2-2.9-0.6c-0.9-0.4-1.7-0.9-2.3-1.6c-0.6-0.7-1.1-1.5-1.5-2.5c-0.4-0.9-0.5-2-0.5-3.1V41.9
		h-7.9V64c0,2.1,0.3,4.1,1,5.9c0.6,1.8,1.6,3.4,2.9,4.7c1.3,1.3,2.9,2.4,4.8,3.1c1.9,0.7,4.1,1.1,6.6,1.1c2.5,0,4.7-0.4,6.6-1.1
		c1.9-0.7,3.5-1.8,4.8-3.1c1.3-1.3,2.2-2.9,2.9-4.7c0.6-1.8,1-3.8,1-5.9V41.9z"/>
	<path fill="#FFFFFF" d="M323.7,77.9h7.9V52.3h0.1l15.7,25.6h10.4v-36h-7.9v25h-0.1l-15.3-25h-10.8V77.9z"/>
	<path fill="#FFFFFF" d="M419.1,46.3c-0.8-1-1.7-1.8-2.6-2.5c-1-0.7-2-1.2-3.1-1.6c-1.1-0.4-2.2-0.7-3.3-0.9
		c-1.1-0.2-2.2-0.3-3.2-0.3c-2.8,0-5.4,0.4-7.8,1.3c-2.4,0.9-4.4,2.1-6.2,3.8c-1.7,1.6-3.1,3.6-4,6c-1,2.3-1.4,4.9-1.4,7.8
		c0,2.9,0.5,5.5,1.4,7.8c1,2.3,2.3,4.3,4,6c1.7,1.6,3.8,2.9,6.2,3.8c2.4,0.9,5,1.3,7.8,1.3c2.5,0,4.9-0.5,7.2-1.5
		c2.3-1,4.3-2.6,5.8-4.7l-6.6-4.9c-0.8,1.2-1.8,2.2-3.1,2.8c-1.3,0.7-2.7,1-4.3,1c-1.4,0-2.8-0.3-4-0.9c-1.2-0.6-2.3-1.4-3.2-2.4
		c-0.9-1-1.6-2.3-2.2-3.7c-0.5-1.4-0.8-3-0.8-4.7c0-1.7,0.3-3.2,0.8-4.6c0.5-1.4,1.3-2.7,2.2-3.7c0.9-1,2-1.8,3.3-2.4
		c1.3-0.6,2.7-0.9,4.1-0.9c1.5,0,2.8,0.3,3.9,0.8c1.1,0.5,2.1,1.2,2.9,2.2L419.1,46.3z"/>
	<path fill="#FFFFFF" d="M448.7,77.9h7.9V62.3H472v15.6h7.9v-36H472v13.4h-15.4V41.9h-7.9V77.9z"/>
	<path fill="#FFFFFF" d="M551.1,77.9h14.7c1.6,0,3.2-0.2,4.8-0.5c1.6-0.3,3.1-0.9,4.3-1.7c1.3-0.8,2.3-1.8,3.2-3.1
		c0.8-1.3,1.2-2.9,1.2-4.8c0-1.2-0.2-2.2-0.6-3.3c-0.4-1-0.9-1.9-1.6-2.7c-0.7-0.8-1.5-1.4-2.5-1.9c-1-0.5-2-0.8-3.2-1V59
		c1.9-0.6,3.4-1.5,4.5-2.9c1.1-1.3,1.7-3,1.7-5.1c0-2-0.4-3.5-1.2-4.7c-0.8-1.2-1.8-2.1-3-2.8c-1.3-0.7-2.7-1.1-4.2-1.3
		c-1.6-0.2-3.1-0.3-4.7-0.3h-13.4V77.9z M559.1,48.6h5.4c0.6,0,1.2,0.1,1.9,0.2c0.6,0.1,1.2,0.3,1.7,0.6c0.5,0.3,0.9,0.7,1.2,1.1
		c0.3,0.5,0.5,1.1,0.5,1.9c0,0.7-0.1,1.3-0.4,1.8c-0.3,0.5-0.7,0.9-1.1,1.2c-0.5,0.3-1,0.5-1.6,0.7c-0.6,0.1-1.2,0.2-1.8,0.2h-5.7
		V48.6z M559.1,63h6c0.6,0,1.3,0.1,2.1,0.2c0.7,0.1,1.4,0.3,2.1,0.6c0.6,0.3,1.2,0.7,1.6,1.2c0.4,0.5,0.6,1.2,0.6,2.1
		c0,0.8-0.2,1.4-0.5,2c-0.3,0.5-0.7,1-1.2,1.3c-0.5,0.3-1.1,0.6-1.7,0.7c-0.6,0.1-1.2,0.2-1.9,0.2h-7.1V63z"/>
	<path fill="#FFFFFF" d="M617.3,77.9h7.9V62.5l13.5-20.6h-9.4l-8.1,13.5l-7.6-13.5h-9.9l13.5,20.6V77.9z"/>
	<path fill="#FFFFFF" d="M180.3,140.9h-42.2v22h19.4v17.5c-2.2,1.2-5.2,2.4-9,3.6c-3.8,1.2-8.2,1.8-13.4,1.8
		c-5.1,0-9.7-0.9-13.8-2.6c-4.1-1.7-7.7-4.1-10.6-7.2c-2.9-3.1-5.2-6.8-6.8-11c-1.6-4.2-2.4-8.9-2.4-14c0-5,0.8-9.6,2.4-13.9
		c1.6-4.3,3.8-8,6.8-11.1c2.9-3.1,6.5-5.5,10.6-7.2c4.1-1.7,8.7-2.6,13.8-2.6c6.1,0,11.2,0.9,15.2,2.6c4.1,1.7,7.7,4.3,11,7.6
		l16.8-18.3c-5.5-5.1-11.9-8.7-19.1-10.8c-7.3-2.1-15.2-3.1-23.9-3.1c-8.4,0-16.2,1.3-23.3,4c-7.1,2.6-13.3,6.4-18.5,11.4
		c-5.2,4.9-9.2,10.9-12.1,17.9c-2.9,7-4.3,14.8-4.3,23.5c0,8.6,1.4,16.5,4.3,23.5c2.9,7,6.9,13,12.1,17.9
		c5.2,4.9,11.3,8.7,18.5,11.4c7.1,2.6,14.9,4,23.3,4c7.9,0,15.7-0.8,23.3-2.4c7.6-1.6,14.9-4.3,22-7.9V140.9z"/>
	<path fill="#FFFFFF" d="M211.3,205h76.1v-22H235v-22h46.8v-22H235V119h49.6V97h-73.4V205z"/>
	<path fill="#00B6E2" d="M314.1,174.5c2.9,7,6.9,13,12.1,17.9c5.2,4.9,11.3,8.7,18.5,11.4c7.1,2.6,14.9,4,23.3,4
		c8.4,0,16.2-1.3,23.3-4c7.1-2.6,13.3-6.4,18.5-11.4c5.2-4.9,9.2-10.9,12.1-17.9c2.9-7,4.3-14.8,4.3-23.5c0-8.6-1.4-16.5-4.3-23.5
		c-2.9-7-6.9-13-12.1-17.9c-5.2-4.9-11.3-8.7-18.5-11.4c-7.1-2.6-14.9-4-23.3-4c-8.4,0-16.2,1.3-23.3,4c-7.1,2.6-13.3,6.4-18.5,11.4
		c-5.2,4.9-9.2,10.9-12.1,17.9c-2.9,7-4.3,14.8-4.3,23.5C309.8,159.6,311.2,167.4,314.1,174.5z M336.8,137.1c1.6-4.3,3.8-8,6.8-11.1
		c2.9-3.1,6.5-5.5,10.6-7.2c4.1-1.7,8.7-2.6,13.8-2.6c5.1,0,9.7,0.9,13.8,2.6c4.1,1.7,7.6,4.1,10.6,7.2c2.9,3.1,5.2,6.8,6.8,11.1
		c1.6,4.3,2.4,8.9,2.4,13.9c0,5.1-0.8,9.7-2.4,14c-1.6,4.2-3.8,7.9-6.8,11c-2.9,3.1-6.5,5.5-10.6,7.2c-4.1,1.7-8.7,2.6-13.8,2.6
		c-5.1,0-9.7-0.9-13.8-2.6c-4.1-1.7-7.7-4.1-10.6-7.2c-2.9-3.1-5.2-6.8-6.8-11c-1.6-4.2-2.4-8.9-2.4-14
		C334.5,146,335.3,141.4,336.8,137.1z"/>
	<path fill="#FFFFFF" d="M451.6,205h23.8v-43.2h11.7l22.6,43.2h28.5l-27.4-45.6c7.6-1.4,13.4-4.8,17.4-10.1s5.9-11.8,5.9-19.4
		c0-6.3-1.1-11.6-3.3-15.8c-2.2-4.2-5.1-7.6-8.8-10.1c-3.7-2.5-8-4.3-13-5.3c-4.9-1.1-10.1-1.6-15.6-1.6h-41.8V205z M475.4,117.1
		h15.6c2.1,0,4.3,0.2,6.6,0.5c2.2,0.3,4.2,0.9,5.9,1.8c1.7,0.9,3.1,2.1,4.3,3.7c1.1,1.6,1.7,3.8,1.7,6.6c0,2.9-0.6,5.2-1.9,6.9
		c-1.3,1.6-2.9,2.8-4.8,3.6c-1.9,0.8-4.1,1.2-6.5,1.4c-2.4,0.2-4.7,0.2-6.8,0.2h-14V117.1z"/>
	<path fill="#FFFFFF" d="M657.3,140.9h-42.2v22h19.4v17.5c-2.2,1.2-5.2,2.4-9,3.6c-3.8,1.2-8.2,1.8-13.4,1.8
		c-5.1,0-9.7-0.9-13.8-2.6c-4.1-1.7-7.7-4.1-10.6-7.2c-2.9-3.1-5.2-6.8-6.8-11c-1.6-4.2-2.4-8.9-2.4-14c0-5,0.8-9.6,2.4-13.9
		c1.6-4.3,3.8-8,6.8-11.1c2.9-3.1,6.5-5.5,10.6-7.2c4.1-1.7,8.7-2.6,13.8-2.6c6.1,0,11.2,0.9,15.2,2.6c4.1,1.7,7.7,4.3,11,7.6
		l16.8-18.3c-5.5-5.1-11.9-8.7-19.1-10.8c-7.3-2.1-15.2-3.1-23.9-3.1c-8.4,0-16.2,1.3-23.3,4c-7.1,2.6-13.3,6.4-18.5,11.4
		c-5.2,4.9-9.2,10.9-12.1,17.9c-2.9,7-4.3,14.8-4.3,23.5c0,8.6,1.4,16.5,4.3,23.5c2.9,7,6.9,13,12.1,17.9
		c5.2,4.9,11.3,8.7,18.5,11.4c7.1,2.6,14.9,4,23.3,4c7.9,0,15.7-0.8,23.3-2.4c7.6-1.6,14.9-4.3,22-7.9V140.9z"/>
	<path fill="#FFFFFF" d="M688.3,205h76.1v-22h-52.3v-22h46.8v-22h-46.8V119h49.6V97h-73.4V205z"/>
</g>
<g id="Layer_3">
	
		<rect x="61.1" y="216.9" transform="matrix(0.9999 -1.190796e-02 1.190796e-02 0.9999 -2.8678 5.2103)" fill="#2772B9" width="750" height="53"/>
	
		<rect x="48.9" y="201.1" transform="matrix(0.9999 -1.190796e-02 1.190796e-02 0.9999 -2.7096 5.0645)" fill="#029CD8" width="750" height="58"/>
</g>
<g id="Layer_4">
	<path fill="#FFFFFF" d="M158.7,246.6c1.4-0.6,2.7-1.5,3.7-2.5c1-1.1,1.8-2.3,2.4-3.8c0.6-1.4,0.8-3,0.8-4.7c0-1.7-0.3-3.2-0.9-4.7
		c-0.6-1.4-1.4-2.7-2.4-3.7c-1-1-2.3-1.9-3.7-2.5c-1.4-0.6-3-0.9-4.7-0.9c-1.7,0-3.3,0.3-4.7,1c-1.4,0.6-2.7,1.5-3.7,2.5
		c-1,1.1-1.8,2.3-2.4,3.8c-0.6,1.4-0.8,3-0.8,4.7c0,1.7,0.3,3.2,0.9,4.7c0.6,1.4,1.4,2.7,2.4,3.7c1,1,2.3,1.9,3.7,2.5
		c1.4,0.6,3,0.9,4.7,0.9C155.7,247.6,157.3,247.3,158.7,246.6z M150.5,244.1c-1-0.5-1.9-1.1-2.7-1.9c-0.7-0.8-1.3-1.7-1.7-2.8
		c-0.4-1.1-0.6-2.2-0.6-3.5c0-1.2,0.2-2.4,0.6-3.5c0.4-1.1,1-2,1.7-2.9c0.7-0.8,1.6-1.5,2.6-1.9c1-0.5,2.2-0.7,3.5-0.7
		c1.3,0,2.5,0.2,3.5,0.7c1,0.5,1.9,1.1,2.7,1.9c0.7,0.8,1.3,1.7,1.7,2.8c0.4,1.1,0.6,2.2,0.6,3.5c0,1.2-0.2,2.4-0.6,3.5
		c-0.4,1.1-1,2-1.7,2.9c-0.7,0.8-1.6,1.5-2.6,1.9c-1,0.5-2.2,0.7-3.5,0.7C152.7,244.8,151.5,244.5,150.5,244.1z"/>
	<path fill="#FFFFFF" d="M180.9,246.8l3,0l-0.1-9.9l4.9,0c1.4,0,2.6-0.2,3.5-0.6c0.9-0.4,1.7-0.9,2.2-1.5c0.5-0.6,0.9-1.3,1.1-2
		c0.2-0.8,0.3-1.5,0.3-2.2c0-0.7-0.1-1.4-0.3-2.2c-0.2-0.7-0.6-1.4-1.1-2c-0.5-0.6-1.3-1.1-2.2-1.5c-0.9-0.4-2.1-0.6-3.6-0.6
		l-7.9,0.1L180.9,246.8z M183.7,226.9l4,0c0.6,0,1.2,0,1.8,0.1c0.6,0.1,1.1,0.3,1.6,0.5c0.5,0.2,0.8,0.6,1.1,1.1
		c0.3,0.5,0.4,1.1,0.4,1.9c0,0.8-0.1,1.4-0.4,1.9c-0.3,0.5-0.6,0.8-1.1,1.1c-0.5,0.3-1,0.4-1.5,0.5c-0.6,0.1-1.2,0.2-1.8,0.2l-4,0
		L183.7,226.9z"/>
	<path fill="#FFFFFF" d="M210.5,246.5l15.1-0.1l0-2.9l-12,0.1l-0.1-7.2l10.7-0.1l0-2.9l-10.7,0.1l-0.1-6.7l11.5-0.1l0-2.9l-14.5,0.1
		L210.5,246.5z"/>
	<path fill="#FFFFFF" d="M240.7,246.2l3,0l-0.1-9.9l3.4,0l5.8,9.8l3.8,0l-6.5-10.2c0.8-0.1,1.6-0.3,2.3-0.7c0.7-0.4,1.3-0.8,1.7-1.4
		c0.5-0.5,0.8-1.2,1.1-1.8c0.2-0.7,0.4-1.4,0.4-2.1c0-0.7-0.1-1.4-0.3-2.2c-0.2-0.7-0.6-1.4-1.1-2c-0.5-0.6-1.3-1.1-2.2-1.5
		c-0.9-0.4-2.1-0.6-3.6-0.6l-7.9,0.1L240.7,246.2z M243.5,226.3l4,0c0.6,0,1.2,0,1.8,0.1c0.6,0.1,1.1,0.3,1.6,0.5
		c0.5,0.2,0.8,0.6,1.1,1.1c0.3,0.5,0.4,1.1,0.4,1.9c0,0.8-0.1,1.4-0.4,1.9c-0.3,0.5-0.6,0.8-1.1,1.1c-0.5,0.3-1,0.4-1.5,0.5
		c-0.6,0.1-1.2,0.2-1.8,0.2l-4,0L243.5,226.3z"/>
	<path fill="#FFFFFF" d="M268,245.9l3.6,0l2.2-5.6l10.7-0.1l2.3,5.5l3.6,0l-9.8-22.4l-2.8,0L268,245.9z M274.8,237.6l4.2-10.4l0.1,0
		l4.3,10.3L274.8,237.6z"/>
	<path fill="#FFFFFF" d="M305.8,245.5l3,0l-0.2-19.6l7.2-0.1l0-2.9l-17.5,0.2l0,2.9l7.2-0.1L305.8,245.5z"/>
	<path fill="#FFFFFF" d="M330.1,245.3l3,0l-0.2-22.5l-3,0L330.1,245.3z"/>
	<path fill="#FFFFFF" d="M349.7,245.1l3,0l-0.2-18.5l0.1,0l12.7,18.3l3.9,0l-0.2-22.5l-3,0l0.2,18.5l-0.1,0l-12.6-18.3l-4,0
		L349.7,245.1z"/>
	<path fill="#FFFFFF" d="M396.7,232.1l0,2.9l5,0l0.1,6.3c-0.7,0.4-1.5,0.7-2.5,0.9c-1,0.2-2,0.3-3.1,0.3c-1.2,0-2.4-0.2-3.5-0.6
		c-1.1-0.4-2-1.1-2.8-1.9c-0.8-0.8-1.4-1.7-1.9-2.8c-0.5-1.1-0.7-2.3-0.7-3.5c0-1.2,0.2-2.4,0.6-3.5c0.4-1.1,1-2,1.7-2.9
		c0.7-0.8,1.6-1.5,2.6-1.9c1-0.5,2.2-0.7,3.5-0.7c1.1,0,2.2,0.2,3.3,0.5c1,0.3,2,0.9,3,1.8l2.1-2.3c-0.9-0.9-2-1.6-3.3-2.1
		c-1.3-0.5-3-0.7-5.1-0.7c-1.7,0-3.3,0.3-4.7,1c-1.4,0.6-2.7,1.5-3.7,2.5c-1,1.1-1.8,2.3-2.4,3.8c-0.6,1.4-0.8,3-0.8,4.7
		c0,1.6,0.3,3.1,0.9,4.5c0.6,1.4,1.3,2.7,2.4,3.7c1,1.1,2.3,1.9,3.8,2.5c1.5,0.6,3.2,0.9,5.1,0.9c0.7,0,1.4-0.1,2.2-0.1
		c0.8-0.1,1.5-0.2,2.3-0.4s1.5-0.4,2.2-0.7c0.7-0.3,1.3-0.6,1.9-0.9l-0.1-11.1L396.7,232.1z"/>
	<path fill="#FFFFFF" d="M439,241.7c0.8,1.1,1.8,1.8,3.1,2.3c1.3,0.5,2.7,0.7,4.1,0.7c1.1,0,2.1-0.2,3-0.5c0.9-0.3,1.8-0.8,2.5-1.4
		c0.7-0.6,1.2-1.3,1.6-2.2c0.4-0.9,0.6-1.8,0.6-2.9c0-1.4-0.3-2.4-0.9-3.2c-0.6-0.8-1.2-1.4-2.1-1.8c-0.8-0.4-1.7-0.8-2.7-1
		c-1-0.2-1.9-0.5-2.7-0.8c-0.8-0.3-1.5-0.7-2.1-1.2c-0.6-0.5-0.8-1.2-0.8-2.2c0-0.3,0.1-0.7,0.2-1.1c0.1-0.4,0.4-0.8,0.7-1.1
		c0.3-0.4,0.8-0.6,1.3-0.9c0.6-0.2,1.3-0.3,2.1-0.4c0.9,0,1.7,0.2,2.4,0.5c0.7,0.4,1.2,0.8,1.6,1.4l2.5-2.3c-0.9-1-1.8-1.7-3-2
		c-1.1-0.3-2.3-0.5-3.5-0.5c-1.4,0-2.5,0.2-3.5,0.7c-1,0.4-1.7,0.9-2.3,1.6c-0.6,0.6-1.1,1.3-1.3,2c-0.3,0.7-0.4,1.4-0.4,2.1
		c0,1.5,0.3,2.6,0.9,3.5c0.6,0.9,1.2,1.5,2.1,2c0.8,0.5,1.7,0.9,2.7,1.2c1,0.3,1.9,0.6,2.7,0.9c0.8,0.3,1.5,0.7,2.1,1.1
		c0.6,0.4,0.8,1.1,0.8,2c0,0.6-0.1,1.2-0.4,1.6c-0.3,0.5-0.6,0.9-1.1,1.2c-0.4,0.3-0.9,0.6-1.4,0.7c-0.5,0.2-1,0.2-1.6,0.3
		c-0.9,0-1.8-0.2-2.7-0.6c-0.9-0.4-1.6-1-2.1-1.8L439,241.7z"/>
	<path fill="#FFFFFF" d="M469.3,243.9l3,0l-0.2-22.5l-3,0L469.3,243.9z"/>
	<path fill="#FFFFFF" d="M488.9,243.8l3,0l-0.2-18.5l0.1,0l12.7,18.3l3.9,0l-0.2-22.5l-3,0l0.2,18.5l-0.1,0l-12.6-18.3l-4,0
		L488.9,243.8z"/>
	<path fill="#FFFFFF" d="M542.9,223.7c-0.9-1.2-2.1-2-3.5-2.6c-1.4-0.6-2.9-0.8-4.4-0.8c-1.7,0-3.3,0.3-4.8,0.9
		c-1.4,0.6-2.7,1.4-3.7,2.5c-1,1.1-1.8,2.4-2.4,3.8c-0.6,1.5-0.8,3.1-0.8,4.8c0,1.4,0.3,2.8,0.8,4.2c0.5,1.4,1.3,2.6,2.3,3.7
		c1,1.1,2.2,2,3.7,2.6c1.4,0.7,3,1,4.8,1c1.3,0,2.4-0.2,3.4-0.5c1-0.3,1.8-0.7,2.5-1.2c0.7-0.4,1.2-0.9,1.7-1.3
		c0.4-0.4,0.7-0.8,0.9-1l-2.6-1.9c-0.7,1-1.5,1.7-2.5,2.2c-1,0.5-2.1,0.8-3.4,0.8c-1.3,0-2.5-0.2-3.5-0.7c-1-0.5-1.9-1.1-2.7-1.9
		c-0.7-0.8-1.3-1.7-1.7-2.8c-0.4-1.1-0.6-2.2-0.6-3.4c0-1.3,0.2-2.5,0.6-3.6c0.4-1.1,0.9-2.1,1.7-2.9c0.7-0.8,1.6-1.5,2.6-2
		c1-0.5,2.2-0.7,3.4-0.7c1,0,2,0.2,3,0.6c1,0.4,1.8,1.1,2.4,1.9L542.9,223.7z"/>
	<path fill="#FFFFFF" d="M558.1,243.1l15.1-0.1l0-2.9l-12,0.1L561,233l10.7-0.1l0-2.9l-10.7,0.1l-0.1-6.7l11.5-0.1l0-2.9l-14.5,0.1
		L558.1,243.1z"/>
	<path fill="#FFFFFF" d="M613.5,242.5l3,0l-0.2-22.5l-2.7,0l-6.2,5.2l1.8,2.1l4.1-3.8L613.5,242.5z"/>
	<path fill="#FFFFFF" d="M638.4,242.3l3.6,0l5.6-9c0.3-0.5,0.6-1.1,0.9-1.6c0.3-0.5,0.5-1,0.7-1.5c0.2-0.5,0.3-1.1,0.4-1.6
		c0.1-0.6,0.1-1.2,0.1-1.9c0-1.1-0.2-2.1-0.6-3c-0.4-0.9-1-1.6-1.7-2.3c-0.7-0.6-1.5-1.1-2.5-1.4c-0.9-0.3-1.9-0.5-3-0.5
		c-1.1,0-2.1,0.2-3,0.5c-0.9,0.3-1.7,0.8-2.4,1.5c-0.7,0.6-1.2,1.4-1.6,2.4c-0.4,0.9-0.6,2-0.6,3.3c0,1.2,0.2,2.3,0.7,3.2
		c0.4,0.9,1,1.6,1.7,2.2c0.7,0.6,1.4,1,2.3,1.3c0.8,0.3,1.6,0.4,2.4,0.4c1,0,1.8-0.2,2.5-0.5l0.1,0L638.4,242.3z M646.4,228.6
		c-0.2,0.6-0.5,1.1-0.9,1.5c-0.4,0.4-0.9,0.7-1.5,1c-0.6,0.2-1.2,0.4-1.9,0.4c-0.7,0-1.3-0.1-1.9-0.3c-0.6-0.2-1.1-0.5-1.5-1
		c-0.4-0.4-0.7-0.9-1-1.5c-0.2-0.6-0.3-1.2-0.4-1.9c0-0.7,0.1-1.3,0.3-1.9c0.2-0.6,0.5-1.1,0.9-1.5c0.4-0.4,0.9-0.7,1.5-1
		c0.6-0.2,1.2-0.4,1.9-0.4c0.7,0,1.3,0.1,1.9,0.3c0.6,0.2,1.1,0.5,1.5,1c0.4,0.4,0.7,0.9,1,1.5c0.2,0.6,0.3,1.2,0.4,1.9
		C646.7,227.4,646.6,228,646.4,228.6z"/>
	<path fill="#FFFFFF" d="M673.5,241.9c0.9-0.3,1.7-0.8,2.3-1.4c0.6-0.6,1.2-1.3,1.5-2.2c0.4-0.8,0.6-1.8,0.5-2.9
		c0-0.7-0.1-1.3-0.4-1.9c-0.2-0.6-0.5-1.1-0.9-1.6c-0.4-0.5-0.8-0.9-1.4-1.2c-0.5-0.3-1.1-0.6-1.7-0.7l0-0.1
		c0.4-0.1,0.8-0.3,1.3-0.6c0.4-0.3,0.8-0.6,1.1-1.1c0.3-0.4,0.6-0.9,0.8-1.5s0.3-1.3,0.3-2.1c0-0.8-0.2-1.6-0.5-2.3
		c-0.4-0.7-0.8-1.3-1.4-1.7c-0.6-0.5-1.3-0.8-2.1-1.1c-0.8-0.3-1.6-0.4-2.5-0.4s-1.7,0.1-2.5,0.4c-0.8,0.3-1.5,0.7-2.1,1.1
		c-0.6,0.5-1.1,1.1-1.4,1.8c-0.3,0.7-0.5,1.5-0.5,2.3c0,0.8,0.1,1.5,0.3,2.1c0.2,0.6,0.5,1.1,0.8,1.5c0.3,0.4,0.7,0.8,1.1,1
		c0.4,0.3,0.9,0.5,1.3,0.6l0,0.1c-0.6,0.2-1.2,0.4-1.7,0.8c-0.5,0.3-1,0.7-1.3,1.2c-0.4,0.5-0.7,1-0.9,1.6c-0.2,0.6-0.3,1.2-0.3,1.9
		c0,1.1,0.2,2,0.6,2.9c0.4,0.8,0.9,1.6,1.6,2.1c0.7,0.6,1.4,1,2.3,1.3c0.9,0.3,1.9,0.4,2.9,0.4C671.7,242.4,672.6,242.2,673.5,241.9
		z M668,222.6c0.7-0.7,1.5-1,2.5-1c1.1,0,1.9,0.3,2.6,1c0.7,0.7,1,1.5,1,2.5c0,0.5-0.1,0.9-0.2,1.3c-0.1,0.4-0.4,0.8-0.7,1.1
		c-0.3,0.3-0.7,0.6-1.1,0.8c-0.4,0.2-0.9,0.3-1.5,0.3c-0.6,0-1.1-0.1-1.5-0.3c-0.4-0.2-0.8-0.5-1.1-0.8c-0.3-0.3-0.5-0.7-0.7-1.1
		c-0.2-0.4-0.2-0.9-0.3-1.3C667,224.1,667.3,223.3,668,222.6z M669,239.4c-0.5-0.2-1-0.5-1.4-0.8c-0.4-0.3-0.7-0.8-0.9-1.3
		c-0.2-0.5-0.4-1.1-0.4-1.8c0-1.2,0.4-2.2,1.2-3c0.8-0.8,1.8-1.2,3.1-1.2c0.6,0,1.1,0.1,1.7,0.3c0.5,0.2,1,0.4,1.4,0.8
		c0.4,0.3,0.7,0.8,0.9,1.3c0.2,0.5,0.3,1.1,0.4,1.8c0,1.2-0.4,2.2-1.2,3c-0.8,0.8-1.8,1.2-3.1,1.2
		C670.1,239.7,669.5,239.6,669,239.4z"/>
	<path fill="#FFFFFF" d="M691.7,237.3c0.5,1.7,1.4,2.9,2.7,3.7c1.3,0.8,2.8,1.1,4.5,1.1c1,0,1.9-0.2,2.8-0.4
		c0.9-0.3,1.7-0.7,2.4-1.2c0.7-0.5,1.2-1.2,1.6-2c0.4-0.8,0.6-1.8,0.6-2.8c0-0.7-0.1-1.4-0.3-2c-0.2-0.6-0.5-1.2-0.9-1.7
		c-0.4-0.5-0.9-0.9-1.4-1.3c-0.6-0.3-1.2-0.6-1.9-0.7l0-0.1c1.1-0.3,2.1-1,2.8-1.9c0.7-0.9,1-2,1-3.2c0-1-0.2-1.9-0.6-2.7
		c-0.4-0.8-0.9-1.4-1.5-1.9c-0.6-0.5-1.4-0.9-2.2-1.1c-0.8-0.2-1.7-0.3-2.6-0.3c-1.5,0-2.9,0.4-4.1,1.1c-1.2,0.7-2.1,1.8-2.7,3.2
		l3.1,1c0.3-0.8,0.8-1.4,1.5-1.9c0.7-0.5,1.4-0.7,2.2-0.7c1.1,0,2,0.3,2.7,0.9c0.7,0.6,1.1,1.5,1.1,2.7c0,0.6-0.1,1-0.2,1.5
		c-0.2,0.4-0.5,0.8-0.9,1.1c-0.4,0.3-1,0.5-1.7,0.7c-0.7,0.2-1.7,0.3-2.9,0.3l0,2.7c0.7,0,1.4,0,2.2,0.1c0.7,0.1,1.4,0.3,2,0.5
		c0.6,0.3,1.1,0.7,1.5,1.3c0.4,0.6,0.6,1.3,0.6,2.2c0,0.6-0.1,1.2-0.3,1.7c-0.2,0.5-0.5,0.9-0.9,1.3c-0.4,0.4-0.9,0.6-1.4,0.8
		c-0.5,0.2-1.1,0.3-1.7,0.3c-1.2,0-2.1-0.2-2.7-0.8c-0.6-0.5-1.1-1.3-1.5-2.4L691.7,237.3z"/>
</g>
<g id="Layer_5" display="none">
</g>
</svg>
