<?xml version="1.0" encoding="utf-8"?>
<!-- Generator: Adobe Illustrator 18.1.1, SVG Export Plug-In . SVG Version: 6.00 Build 0)  -->
<svg version="1.1" id="Layer_1" xmlns="http://www.w3.org/2000/svg" xmlns:xlink="http://www.w3.org/1999/xlink" x="0px" y="0px"
	 viewBox="0 0 566 180" enable-background="new 0 0 566 180" xml:space="preserve">
<path fill="#696969" d="M114.3,4.7h-3.1v30.8h17.5v-2.9h-14.4V4.7z"/>
<path fill="#696969" d="M175.8,4.7h-3.1v19c0,1.5-0.1,2.7-0.4,3.8c-0.3,1.1-0.7,2-1.2,2.7c-0.5,0.7-1,1.3-1.6,1.7
	c-0.6,0.4-1.2,0.7-1.8,1c-0.6,0.2-1.2,0.4-1.7,0.5c-0.6,0.1-1,0.1-1.4,0.1c-0.4,0-0.9,0-1.4-0.1c-0.6-0.1-1.1-0.2-1.7-0.5
	c-0.6-0.2-1.2-0.6-1.8-1c-0.6-0.4-1.1-1-1.6-1.7c-0.5-0.7-0.9-1.6-1.2-2.7c-0.3-1.1-0.4-2.3-0.4-3.8v-19h-3.1V24
	c0,1.3,0.2,2.6,0.5,4.1s0.9,2.8,1.7,4c0.8,1.2,2,2.2,3.4,3c1.4,0.8,3.3,1.2,5.7,1.2c2.3,0,4.2-0.4,5.6-1.2c1.5-0.8,2.6-1.8,3.5-3
	c0.8-1.2,1.4-2.5,1.7-4s0.5-2.8,0.5-4.1V4.7z"/>
<path fill="#696969" d="M208.5,4.7h-3.9v30.8h3.1V9.1h0.1l18.4,26.4h3.9V4.7h-3.1v26.1h-0.1L208.5,4.7z"/>
<path fill="#696969" d="M282.1,28.8c-0.6,0.9-1.2,1.6-1.9,2.2c-0.7,0.6-1.4,1.1-2.2,1.4c-0.8,0.3-1.6,0.6-2.3,0.7
	c-0.8,0.1-1.6,0.2-2.4,0.2c-2,0-3.7-0.4-5.3-1.1c-1.6-0.7-2.9-1.7-4-2.9c-1.1-1.2-1.9-2.6-2.5-4.2c-0.6-1.6-0.9-3.3-0.9-5.1
	c0-1.8,0.3-3.5,0.9-5.1c0.6-1.6,1.4-3,2.5-4.2s2.4-2.2,4-2.9c1.6-0.7,3.3-1.1,5.3-1.1c0.8,0,1.6,0.1,2.4,0.3
	c0.8,0.2,1.6,0.5,2.3,0.9c0.7,0.4,1.3,0.8,1.9,1.3c0.6,0.5,1,1,1.3,1.5l2.7-2c-1.4-1.7-3-3-4.9-3.7c-1.9-0.8-3.8-1.1-5.7-1.1
	c-2.3,0-4.4,0.4-6.4,1.2c-2,0.8-3.7,1.9-5.1,3.4c-1.4,1.4-2.6,3.1-3.4,5.1c-0.8,2-1.2,4.1-1.2,6.5s0.4,4.5,1.2,6.5
	c0.8,2,1.9,3.7,3.4,5.1c1.4,1.4,3.1,2.6,5.1,3.4c2,0.8,4.1,1.2,6.4,1.2c1.3,0,2.5-0.1,3.6-0.4c1.1-0.3,2.2-0.7,3.2-1.2
	c1-0.5,1.9-1.1,2.6-1.8c0.8-0.7,1.4-1.4,1.9-2.2L282.1,28.8z"/>
<path fill="#696969" d="M310.8,35.5h3.1V20.9h16.8v14.6h3.1V4.7h-3.1v13.4h-16.8V4.7h-3.1V35.5z"/>
<path fill="#696969" d="M399.2,20.8h6.4c2.5,0,4.4,0.5,5.7,1.5c1.3,1,2,2.5,2,4.5c0,1-0.2,1.9-0.6,2.6c-0.4,0.7-1,1.3-1.7,1.8
	c-0.7,0.5-1.6,0.8-2.6,1.1c-1,0.2-2,0.3-3.2,0.3h-6V20.8z M399.2,7.6h6c1.5,0,2.7,0.2,3.5,0.6c0.9,0.4,1.5,0.9,2,1.5
	c0.4,0.6,0.7,1.2,0.9,1.7c0.1,0.6,0.2,1,0.2,1.3c0,1-0.2,1.8-0.6,2.5c-0.4,0.7-0.9,1.2-1.5,1.7c-0.6,0.4-1.3,0.7-2,0.9
	c-0.7,0.2-1.5,0.3-2.2,0.3h-6.3V7.6z M396.1,35.5h9.4c2.5,0,4.4-0.3,5.9-1c1.5-0.7,2.6-1.5,3.4-2.5c0.8-0.9,1.3-1.9,1.5-2.8
	c0.2-1,0.4-1.7,0.4-2.2c0-2.3-0.6-4.1-1.8-5.4c-1.2-1.3-2.9-2.1-5.1-2.3v-0.1c1.7-0.4,3.1-1.2,4-2.4c0.9-1.2,1.4-2.6,1.4-4.3
	c0-1.4-0.3-2.7-0.8-3.7c-0.6-1-1.3-1.8-2.2-2.4c-0.9-0.6-2-1-3.2-1.3c-1.2-0.3-2.4-0.4-3.7-0.4h-9.2V35.5z"/>
<path fill="#696969" d="M454.2,22.2l11.5-17.5h-3.9l-9.2,14.5l-9.2-14.5h-3.9l11.5,17.5v13.3h3.1V22.2z"/>
<path fill="#696969" d="M108.8,81.7h-31v16.1H92v12.9c-1.6,0.9-3.8,1.8-6.6,2.6c-2.8,0.9-6,1.3-9.8,1.3c-3.7,0-7.1-0.6-10.1-1.9
	c-3-1.3-5.6-3-7.8-5.3c-2.2-2.3-3.8-5-5-8.1c-1.2-3.1-1.7-6.5-1.7-10.2c0-3.7,0.6-7,1.7-10.2c1.2-3.1,2.8-5.8,5-8.1
	c2.2-2.3,4.8-4,7.8-5.3c3-1.3,6.4-1.9,10.1-1.9c4.5,0,8.2,0.6,11.2,1.9c3,1.3,5.7,3.1,8.1,5.6l12.3-13.4c-4-3.7-8.7-6.4-14-7.9
	c-5.3-1.5-11.2-2.3-17.5-2.3c-6.2,0-11.9,1-17.1,2.9c-5.2,1.9-9.7,4.7-13.5,8.3c-3.8,3.6-6.8,8-8.9,13.1s-3.2,10.9-3.2,17.2
	c0,6.3,1.1,12.1,3.2,17.2c2.1,5.1,5.1,9.5,8.9,13.1c3.8,3.6,8.3,6.4,13.5,8.3c5.2,1.9,10.9,2.9,17.1,2.9c5.8,0,11.5-0.6,17.1-1.8
	c5.6-1.2,11-3.1,16.1-5.8V81.7z"/>
<path fill="#696969" d="M131.5,128.7h55.8v-16.1h-38.4V96.5h34.3V80.4h-34.3V65.6h36.4V49.5h-53.8V128.7z"/>
<path fill="#1B9AD6" d="M206.9,106.4c2.1,5.1,5.1,9.5,8.9,13.1c3.8,3.6,8.3,6.4,13.5,8.3c5.2,1.9,10.9,2.9,17.1,2.9
	c6.2,0,11.9-1,17.1-2.9c5.2-1.9,9.7-4.7,13.5-8.3c3.8-3.6,6.8-8,8.9-13.1c2.1-5.1,3.2-10.9,3.2-17.2c0-6.3-1.1-12.1-3.2-17.2
	s-5.1-9.5-8.9-13.1c-3.8-3.6-8.3-6.4-13.5-8.3c-5.2-1.9-10.9-2.9-17.1-2.9c-6.2,0-11.9,1-17.1,2.9c-5.2,1.9-9.7,4.7-13.5,8.3
	c-3.8,3.6-6.8,8-8.9,13.1c-2.1,5.1-3.2,10.9-3.2,17.2C203.8,95.5,204.8,101.2,206.9,106.4z M223.6,78.9c1.2-3.1,2.8-5.8,5-8.1
	c2.2-2.3,4.8-4,7.8-5.3c3-1.3,6.4-1.9,10.1-1.9c3.7,0,7.1,0.6,10.1,1.9c3,1.3,5.6,3,7.8,5.3c2.2,2.3,3.8,5,5,8.1
	c1.2,3.1,1.7,6.5,1.7,10.2c0,3.7-0.6,7.1-1.7,10.2c-1.2,3.1-2.8,5.8-5,8.1c-2.2,2.3-4.8,4-7.8,5.3c-3,1.3-6.4,1.9-10.1,1.9
	c-3.7,0-7.1-0.6-10.1-1.9c-3-1.3-5.6-3-7.8-5.3c-2.2-2.3-3.8-5-5-8.1c-1.2-3.1-1.7-6.5-1.7-10.2C221.9,85.5,222.4,82.1,223.6,78.9z"
	/>
<path fill="#696969" d="M307.8,128.7h17.5V97.1h8.6l16.6,31.7h20.9l-20.1-33.4c5.6-1,9.8-3.5,12.8-7.4c2.9-3.9,4.4-8.7,4.4-14.3
	c0-4.6-0.8-8.5-2.4-11.6c-1.6-3.1-3.8-5.6-6.5-7.4c-2.7-1.8-5.9-3.1-9.5-3.9c-3.6-0.8-7.4-1.2-11.5-1.2h-30.7V128.7z M325.2,64.3
	h11.4c1.6,0,3.2,0.1,4.8,0.3c1.6,0.2,3.1,0.7,4.4,1.3c1.3,0.6,2.3,1.5,3.1,2.7c0.8,1.2,1.2,2.8,1.2,4.8c0,2.2-0.5,3.8-1.4,5
	c-0.9,1.2-2.1,2.1-3.5,2.6c-1.4,0.6-3,0.9-4.8,1c-1.8,0.1-3.4,0.2-5,0.2h-10.3V64.3z"/>
<path fill="#696969" d="M458.7,81.7h-31v16.1h14.2v12.9c-1.6,0.9-3.8,1.8-6.6,2.6c-2.8,0.9-6,1.3-9.8,1.3c-3.7,0-7.1-0.6-10.1-1.9
	c-3-1.3-5.6-3-7.8-5.3c-2.2-2.3-3.8-5-5-8.1c-1.2-3.1-1.7-6.5-1.7-10.2c0-3.7,0.6-7,1.7-10.2c1.2-3.1,2.8-5.8,5-8.1
	c2.2-2.3,4.8-4,7.8-5.3c3-1.3,6.4-1.9,10.1-1.9c4.5,0,8.2,0.6,11.2,1.9c3,1.3,5.7,3.1,8.1,5.6L457,57.7c-4-3.7-8.7-6.4-14-7.9
	c-5.3-1.5-11.2-2.3-17.5-2.3c-6.2,0-11.9,1-17.1,2.9c-5.2,1.9-9.7,4.7-13.5,8.3c-3.8,3.6-6.8,8-8.9,13.1s-3.2,10.9-3.2,17.2
	c0,6.3,1.1,12.1,3.2,17.2c2.1,5.1,5.1,9.5,8.9,13.1c3.8,3.6,8.3,6.4,13.5,8.3c5.2,1.9,10.9,2.9,17.1,2.9c5.8,0,11.5-0.6,17.1-1.8
	c5.6-1.2,11-3.1,16.1-5.8V81.7z"/>
<path fill="#696969" d="M481.4,128.7h55.8v-16.1h-38.4V96.5h34.3V80.4h-34.3V65.6h36.4V49.5h-53.8V128.7z"/>
<rect x="8.8" y="132.2" transform="matrix(1 -7.373991e-03 7.373991e-03 1 -1.1143 2.091)" fill="#848484" width="548.4" height="39.8"/>
<text transform="matrix(0.9999 -1.013217e-02 1.013217e-02 0.9999 60.0798 162.6883)" fill="#FFFFFF" font-family="'Avenir-Book'" font-size="24.8586" letter-spacing="8">OPERATING SINCE 1983</text>
</svg>
